<svg xmlns="http://www.w3.org/2000/svg" viewBox="0 0 300 300" width="300" height="300">
  <!-- Ocean Background -->
  <rect width="300" height="300" fill="#1a0033"/>
  
  <!-- Rainbow Waves -->
  <path d="M0,220 Q30,200 60,220 Q90,240 120,220 Q150,200 180,220 Q210,240 240,220 Q270,200 300,220 L300,300 L0,300 Z" fill="#ff0066" opacity="0.5"/>
  <path d="M0,240 Q30,220 60,240 Q90,260 120,240 Q150,220 180,240 Q210,260 240,240 Q270,220 300,240 L300,300 L0,300 Z" fill="#ff9900" opacity="0.6"/>
  <path d="M0,260 Q30,240 60,260 Q90,280 120,260 Q150,240 180,260 Q210,280 240,260 Q270,240 300,260 L300,300 L0,300 Z" fill="#33cc33" opacity="0.7"/>
  <path d="M0,280 Q30,260 60,280 Q90,300 120,280 Q150,260 180,280 Q210,300 240,280 Q270,260 300,280 L300,300 L0,300 Z" fill="#3399ff" opacity="0.8"/>
  
  <!-- Stars -->
  <circle cx="30" cy="30" r="2" fill="#ffcc00"/>
  <circle cx="60" cy="50" r="2.5" fill="#ffcc00"/>
  <circle cx="100" cy="25" r="2" fill="#ffcc00"/>
  <circle cx="200" cy="20" r="2" fill="#ffcc00"/>
  <circle cx="250" cy="45" r="2.5" fill="#ffcc00"/>
  <circle cx="280" cy="70" r="2" fill="#ffcc00"/>
  
  <!-- Larger Star -->
  <path d="M150,40 L153,48 L162,48 L155,53 L158,62 L150,57 L142,62 L145,53 L138,48 L147,48 Z" fill="#ffcc00"/>
  
  <!-- Sun -->
  <circle cx="50" cy="50" r="25" fill="url(#sunGradient)"/>
  
  <!-- Rainbow Shark -->
  <g transform="translate(150, 150) scale(0.8)">
    <!-- Shark Body -->
    <path d="M-60,-10 C-40,-30 40,-30 60,-10 L80,0 L60,10 C40,30 -40,30 -60,10 Z" fill="url(#rainbowGradient)"/>
    
    <!-- Shark Fins -->
    <path d="M0,-30 L15,-5 L-15,-5 Z" fill="#ff0066"/>
    <path d="M40,0 L70,-25 L70,25 Z" fill="#33cc33"/>
    <path d="M-40,0 L-70,-25 L-70,25 Z" fill="#3399ff"/>
    
    <!-- Shark Eye -->
    <circle cx="-35" cy="-5" r="4" fill="#000000"/>
    
    <!-- Shark Gills -->
    <path d="M-25,0 L-27,7 M-20,0 L-22,7 M-15,0 L-17,7" stroke="#000000" stroke-width="2" fill="none"/>
  </g>
  
  <!-- Gradients -->
  <defs>
    <linearGradient id="rainbowGradient" x1="0%" y1="0%" x2="100%" y2="100%">
      <stop offset="0%" stop-color="#ff0066"/>
      <stop offset="16.6%" stop-color="#ff9900"/>
      <stop offset="33.3%" stop-color="#ffcc00"/>
      <stop offset="50%" stop-color="#33cc33"/>
      <stop offset="66.6%" stop-color="#3399ff"/>
      <stop offset="83.3%" stop-color="#9933ff"/>
      <stop offset="100%" stop-color="#ff0066"/>
    </linearGradient>
    
    <radialGradient id="sunGradient" cx="50%" cy="50%" r="50%" fx="50%" fy="50%">
      <stop offset="0%" stop-color="#ffcc00" stop-opacity="1"/>
      <stop offset="70%" stop-color="#ff9900" stop-opacity="1"/>
      <stop offset="100%" stop-color="#ff0066" stop-opacity="1"/>
    </radialGradient>
  </defs>
</svg>