<svg xmlns="http://www.w3.org/2000/svg" viewBox="0 0 300 300" width="300" height="300">
  <!-- Ocean Background -->
  <rect width="300" height="300" fill="#0a0a3a"/>
  
  <!-- Ocean Waves -->
  <path d="M0,220 Q30,200 60,220 Q90,240 120,220 Q150,200 180,220 Q210,240 240,220 Q270,200 300,220 L300,300 L0,300 Z" fill="#1a237e" opacity="0.5"/>
  <path d="M0,240 Q30,220 60,240 Q90,260 120,240 Q150,220 180,240 Q210,260 240,240 Q270,220 300,240 L300,300 L0,300 Z" fill="#283593" opacity="0.6"/>
  <path d="M0,260 Q30,240 60,260 Q90,280 120,260 Q150,240 180,260 Q210,280 240,260 Q270,240 300,260 L300,300 L0,300 Z" fill="#3949ab" opacity="0.7"/>
  <path d="M0,280 Q30,260 60,280 Q90,300 120,280 Q150,260 180,280 Q210,300 240,280 Q270,260 300,280 L300,300 L0,300 Z" fill="#42a5f5" opacity="0.8"/>
  
  <!-- Stars -->
  <circle cx="30" cy="30" r="1" fill="white"/>
  <circle cx="60" cy="50" r="1.5" fill="white"/>
  <circle cx="100" cy="25" r="1" fill="white"/>
  <circle cx="150" cy="40" r="1.5" fill="white"/>
  <circle cx="200" cy="20" r="1" fill="white"/>
  <circle cx="250" cy="45" r="1.5" fill="white"/>
  <circle cx="280" cy="70" r="1" fill="white"/>
  
  <!-- Larger Stars -->
  <path d="M70,60 L72,65 L77,65 L73,68 L75,73 L70,70 L65,73 L67,68 L63,65 L68,65 Z" fill="#4fc3f7"/>
  <path d="M220,50 L222,55 L227,55 L223,58 L225,63 L220,60 L215,63 L217,58 L213,55 L218,55 Z" fill="#4fc3f7"/>
  
  <!-- Moon/Sun -->
  <circle cx="50" cy="50" r="20" fill="#ffeb3b"/>
  <circle cx="50" cy="50" r="20" fill="url(#sunGradient)"/>
  
  <!-- Shark -->
  <g transform="translate(150, 150) scale(0.8)">
    <!-- Shark Body -->
    <path d="M-50,-10 C-30,-30 30,-30 50,-10 L70,0 L50,10 C30,30 -30,30 -50,10 Z" fill="#42a5f5"/>
    <path d="M-50,-10 C-30,-30 30,-30 50,-10 L70,0 L50,10 C30,30 -30,30 -50,10 Z" fill="url(#sharkGradient)"/>
    
    <!-- Shark Fins -->
    <path d="M0,-30 L10,-10 L-10,-10 Z" fill="#29b6f6"/>
    <path d="M30,0 L50,-20 L50,20 Z" fill="#29b6f6"/>
    <path d="M-30,0 L-50,-20 L-50,20 Z" fill="#29b6f6"/>
    
    <!-- Shark Eye -->
    <circle cx="-30" cy="-5" r="3" fill="#0d47a1"/>
    
    <!-- Shark Gills -->
    <path d="M-20,0 L-22,5 M-15,0 L-17,5 M-10,0 L-12,5" stroke="#0d47a1" stroke-width="1" fill="none"/>
  </g>
  
  <!-- Gradients -->
  <defs>
    <linearGradient id="sharkGradient" x1="0%" y1="0%" x2="100%" y2="100%">
      <stop offset="0%" stop-color="#81d4fa" stop-opacity="0.8"/>
      <stop offset="100%" stop-color="#0d47a1" stop-opacity="0.8"/>
    </linearGradient>
    
    <radialGradient id="sunGradient" cx="50%" cy="50%" r="50%" fx="50%" fy="50%">
      <stop offset="0%" stop-color="#ffeb3b" stop-opacity="1"/>
      <stop offset="70%" stop-color="#ff9800" stop-opacity="1"/>
      <stop offset="100%" stop-color="#ff5722" stop-opacity="1"/>
    </radialGradient>
  </defs>
</svg>